<svg width="372" height="127" viewBox="0 0 372 127" fill="none" xmlns="http://www.w3.org/2000/svg">
<path fill-rule="evenodd" clip-rule="evenodd" d="M127.45 6.52112C88.7138 6.52112 101.655 75.08 56.5863 75.08C11.5174 75.08 3.32291 126.611 3.32291 126.611H368.04C368.04 126.611 363.418 92.9175 327.001 92.9175C306.516 92.9175 316.759 40.6575 286.305 40.6575C255.846 40.6575 273.738 83.9998 241.508 83.9998C209.275 83.9998 214.331 58.7514 181.434 58.7514C148.54 58.7514 166.188 6.52112 127.45 6.52112Z" fill="url(#paint0_linear_2:299)"/>
<path fill-rule="evenodd" clip-rule="evenodd" d="M127.535 0.192291C106.688 0.192291 99.35 17.6356 92.2529 34.5046C84.8448 52.1153 77.8484 68.7491 56.671 68.7491C37.0006 68.7491 20.9642 78.2093 10.2923 96.104C2.39343 109.349 0.248963 122.425 0.161344 122.974C-0.114655 124.707 1.1142 126.33 2.906 126.597C3.05714 126.621 3.21047 126.636 3.35943 126.638H3.4799C5.03513 126.612 6.40636 125.491 6.65608 123.942C6.67579 123.819 8.74359 111.35 16.0795 99.1239C25.6409 83.1873 39.3006 75.1067 56.671 75.1067C82.2666 75.1067 90.805 54.811 98.3402 36.9035C105.19 20.6152 111.106 6.54783 127.535 6.54783C145.328 6.54783 149.42 18.3879 154.158 32.0908C158.479 44.5984 163.38 58.7781 181.521 58.7781C196.74 58.7781 203.012 64.5318 209.649 70.6246C216.492 76.906 224.246 84.0244 241.59 84.0244C260.38 84.0244 264.575 70.4974 267.946 59.6279C271.589 47.8832 274.427 40.6842 286.387 40.6842C299.622 40.6842 303.699 51.6321 308.408 68.3337C311.819 80.4323 315.348 92.9442 327.088 92.9442C360.108 92.9442 364.688 122.62 364.867 123.876C365.086 125.472 366.499 126.636 368.12 126.636C368.265 126.636 368.412 126.627 368.556 126.608C370.357 126.379 371.621 124.779 371.382 123.039C371.332 122.675 365.932 86.5865 327.088 86.5865C320.819 86.5865 318.243 79.057 314.747 66.6595C310.686 52.2552 305.631 34.3287 286.387 34.3287C268.932 34.3287 265.063 46.7982 261.653 57.8033C257.832 70.1181 254.818 77.6667 241.59 77.6667C226.866 77.6667 220.984 72.2649 214.168 66.0132C207.228 59.6407 199.362 52.4184 181.521 52.4184C168.757 52.4184 165.178 43.9266 160.387 30.0754C155.787 16.7625 150.059 0.192291 127.535 0.192291Z" fill="#022F96"/>
<defs>
<linearGradient id="paint0_linear_2:299" x1="357.968" y1="126.611" x2="357.968" y2="13.1536" gradientUnits="userSpaceOnUse">
<stop stop-color="#F3F8FF" stop-opacity="0.01"/>
<stop offset="1" stop-color="#3A36FF" stop-opacity="0.195935"/>
</linearGradient>
</defs>
</svg>
