<svg width="24" height="24" viewBox="0 0 24 24" fill="none" xmlns="http://www.w3.org/2000/svg">
<path d="M20.25 3.75H3.75C3.35231 3.75045 2.97104 3.90863 2.68983 4.18983C2.40863 4.47104 2.25045 4.85231 2.25 5.25V17.2499C2.25045 17.6476 2.40863 18.0289 2.68983 18.3101C2.97104 18.5913 3.35231 18.7495 3.75 18.7499L9.32531 18.75L10.7137 21.064C10.847 21.2861 11.0355 21.47 11.2609 21.5976C11.4864 21.7252 11.741 21.7923 12 21.7923C12.259 21.7923 12.5136 21.7252 12.7391 21.5976C12.9645 21.47 13.153 21.2861 13.2862 21.064L14.6746 18.75H20.2499C20.6476 18.7496 21.0289 18.5914 21.3101 18.3102C21.5913 18.029 21.7495 17.6477 21.75 17.25V5.25C21.7496 4.85231 21.5914 4.47104 21.3102 4.18983C21.029 3.90863 20.6477 3.75045 20.25 3.75V3.75ZM7.5 12.375C7.2775 12.375 7.05999 12.309 6.87498 12.1854C6.68998 12.0618 6.54578 11.8861 6.46064 11.6805C6.37549 11.475 6.35321 11.2488 6.39662 11.0305C6.44002 10.8123 6.54717 10.6118 6.7045 10.4545C6.86184 10.2972 7.0623 10.19 7.28052 10.1466C7.49875 10.1032 7.72495 10.1255 7.93052 10.2106C8.13609 10.2958 8.31179 10.44 8.4354 10.625C8.55902 10.81 8.625 11.0275 8.625 11.25C8.625 11.5484 8.50647 11.8345 8.2955 12.0455C8.08452 12.2565 7.79837 12.375 7.5 12.375ZM12 12.375C11.7775 12.375 11.56 12.309 11.375 12.1854C11.19 12.0618 11.0458 11.8861 10.9606 11.6805C10.8755 11.475 10.8532 11.2488 10.8966 11.0305C10.94 10.8123 11.0472 10.6118 11.2045 10.4545C11.3618 10.2972 11.5623 10.19 11.7805 10.1466C11.9988 10.1032 12.225 10.1255 12.4305 10.2106C12.6361 10.2958 12.8118 10.44 12.9354 10.625C13.059 10.81 13.125 11.0275 13.125 11.25C13.125 11.5484 13.0065 11.8345 12.7955 12.0455C12.5845 12.2565 12.2984 12.375 12 12.375ZM16.5 12.375C16.2775 12.375 16.06 12.309 15.875 12.1854C15.69 12.0618 15.5458 11.8861 15.4606 11.6805C15.3755 11.475 15.3532 11.2488 15.3966 11.0305C15.44 10.8123 15.5472 10.6118 15.7045 10.4545C15.8618 10.2972 16.0623 10.19 16.2805 10.1466C16.4988 10.1032 16.725 10.1255 16.9305 10.2106C17.1361 10.2958 17.3118 10.44 17.4354 10.625C17.559 10.81 17.625 11.0275 17.625 11.25C17.625 11.5484 17.5065 11.8345 17.2955 12.0455C17.0845 12.2565 16.7984 12.375 16.5 12.375Z" fill="white"/>
</svg>
