<svg width="24" height="24" viewBox="0 0 24 24" fill="none" xmlns="http://www.w3.org/2000/svg">
<path d="M4 21H10C10.55 21 11 20.55 11 20V14C11 13.45 10.55 13 10 13H4C3.45 13 3 13.45 3 14V20C3 20.55 3.45 21 4 21ZM14 21H20C20.55 21 21 20.55 21 20V14C21 13.45 20.55 13 20 13H14C13.45 13 13 13.45 13 14V20C13 20.55 13.45 21 14 21ZM4 11H10C10.55 11 11 10.55 11 10V4C11 3.45 10.55 3 10 3H4C3.45 3 3 3.45 3 4V10C3 10.55 3.45 11 4 11ZM17 11C16.45 11 16 10.55 16 10V8H14C13.45 8 13 7.55 13 7C13 6.45 13.45 6 14 6H16V4C16 3.45 16.45 3 17 3C17.55 3 18 3.45 18 4V6H20C20.55 6 21 6.45 21 7C21 7.55 20.55 8 20 8H18V10C18 10.55 17.55 11 17 11Z" fill="#A4AFB4"/>
</svg>
