<svg width="33" height="32" viewBox="0 0 33 32" fill="none" xmlns="http://www.w3.org/2000/svg">
<path d="M27.5855 13.82H16.3539V18.45H22.8236C22.2208 21.4 19.6993 23.09 16.3539 23.09C14.4649 23.09 12.6532 22.343 11.3174 21.0134C9.98165 19.6837 9.23123 17.8804 9.23123 16C9.23123 14.1196 9.98165 12.3162 11.3174 10.9866C12.6532 9.65695 14.4649 8.90997 16.3539 8.90997C17.9726 8.91224 19.541 9.4703 20.7943 10.49L24.3004 6.99997C22.8366 5.71496 21.0813 4.80293 19.1852 4.34225C17.2892 3.88157 15.3091 3.88602 13.4151 4.35521C11.5212 4.8244 9.77001 5.7443 8.31205 7.03587C6.8541 8.32743 5.73297 9.95205 5.04501 11.7701C4.35705 13.5882 4.12282 15.5453 4.36246 17.4734C4.60209 19.4014 5.30843 21.2428 6.42076 22.8391C7.5331 24.4355 9.01818 25.7391 10.7484 26.6381C12.4786 27.537 14.4022 28.0044 16.3539 28C22.3816 28 27.8567 23.64 27.8567 16C27.8507 15.2653 27.7597 14.5338 27.5855 13.82V13.82Z" fill="#011E56"/>
</svg>
