<svg width="650" height="1090" viewBox="0 0 650 1090" fill="none" xmlns="http://www.w3.org/2000/svg">
<path d="M0 482H650V1075C650 1083.28 643.284 1090 635 1090H15C6.71575 1090 0 1083.28 0 1075V482Z" fill="#2C3748"/>
<path d="M0 0L0 609H326L326 0H0Z" fill="#505D6F"/>
<path d="M434 596C434 532.487 379.603 481 312.5 481C245.397 481 191 532.487 191 596C191 659.513 245.397 711 312.5 711C379.603 711 434 659.513 434 596Z" fill="#2C3748"/>
<path d="M434 791C434 735.772 385.647 691 326 691C266.353 691 218 735.772 218 791C218 846.228 266.353 891 326 891C385.647 891 434 846.228 434 791Z" fill="#2B3445"/>
<path d="M649.349 790.043C649.349 830.359 640.804 869.549 623.795 906.487C607.437 942.074 584.08 974.057 554.376 1001.46C524.671 1028.86 490.003 1050.41 451.427 1065.5C411.387 1081.12 368.906 1089 325.204 1089V889.67C384.775 889.67 433.279 844.924 433.279 789.968C433.279 735.011 384.775 690.34 325.204 690.34L325.204 491.01C368.906 491.01 411.387 498.894 451.427 514.585C490.003 529.675 524.671 551.222 554.376 578.625C584.08 606.029 607.437 638.012 623.795 673.598C640.723 710.536 649.349 749.651 649.349 790.043Z" fill="#505D6F"/>
<path d="M325.204 291.014L325.204 491.01C265.632 491.01 217.128 535.906 217.128 591.046C217.128 646.187 265.632 691.007 325.204 691.007V891.003C281.501 891.003 239.02 883.094 198.98 867.35C160.404 852.209 125.736 830.59 96.0311 803.095C66.3266 775.601 42.9699 743.511 26.612 707.805C9.68454 670.744 1.1394 631.498 1.1394 590.971C1.1394 550.444 9.68454 511.198 26.6934 474.137C43.0513 438.431 66.408 406.341 96.1125 378.847C125.817 351.352 160.486 329.733 199.061 314.592C239.101 298.923 281.501 291.014 325.204 291.014Z" fill="#232C3B"/>
<path d="M325 291V491H650V291H325Z" fill="#2C3748"/>
<path d="M325 -0.999969V291H313.596C140.345 291 0 160.245 0 -0.999969H325Z" fill="#2B3445"/>
<path d="M326 -1H635C643.284 -1 650 5.71573 650 14V291H326V-1Z" fill="#505D6F"/>
<path d="M650 146.054C650 147.032 650 148.01 650 148.913C647.884 226.113 555.615 272.011 483.85 232.584L326 145.979L483.85 59.3739C555.615 20.0217 647.884 65.92 650 143.044C649.919 144.098 650 145.076 650 146.054Z" fill="#232C3B"/>
<rect x="1" y="-1" width="650" height="1090" rx="15" fill="#022F96" fill-opacity="0.2"/>
</svg>
