<svg width="50" height="50" viewBox="0 0 50 50" fill="none" xmlns="http://www.w3.org/2000/svg">
<g filter="url(#filter0_b_117:210)">
<rect width="50" height="50" rx="15" fill="#022F96"/>
</g>
<path d="M23.1287 30.6968L22.3456 30.3316C20.5667 29.149 19.9341 27.477 20.4477 25.3156L29.9313 29.7378C30.9753 30.2247 31.8878 30.0852 32.6686 29.3195C32.9198 29.0835 33.113 28.8206 33.2483 28.5305L33.654 27.6605C35.5473 23.6002 35.5076 20.0509 33.5349 17.0125C32.7613 15.9456 31.7074 15.1011 30.3733 14.479C28.5752 13.6406 26.7502 13.3898 24.8983 13.7267C21.5618 14.2187 18.8869 16.3963 16.8737 20.2594C16.6534 20.5804 16.5046 20.8994 16.4274 21.2164C14.8433 25.0678 14.8946 28.5166 16.5812 31.5628C17.5135 33.198 18.7047 34.3537 20.1548 35.0299C22.1578 36.0346 23.635 36.6528 24.5862 36.8845C25.9395 37.1625 27.1845 37.1428 28.3211 36.8254C29.3186 36.655 29.9332 36.0942 30.1649 35.143C30.4816 34.1608 30.3441 33.3199 29.7523 32.6203C29.0175 31.9245 28.1669 31.7044 27.2003 31.9599C26.516 32.0645 25.1588 31.6434 23.1287 30.6968ZM28.0955 19.1368C28.6755 19.4072 29.1145 19.7532 29.4123 20.1745C30.124 21.0713 30.2577 22.2988 29.8136 23.8571L29.7324 24.0311L22.598 20.7043C23.425 19.5364 24.4513 18.8498 25.6769 18.6445C26.4772 18.594 27.1384 18.6905 27.6605 18.9339L27.9215 19.0556L28.0955 19.1368Z" fill="#F1F7FF"/>
<defs>
<filter id="filter0_b_117:210" x="-4" y="-4" width="58" height="58" filterUnits="userSpaceOnUse" color-interpolation-filters="sRGB">
<feFlood flood-opacity="0" result="BackgroundImageFix"/>
<feGaussianBlur in="BackgroundImage" stdDeviation="2"/>
<feComposite in2="SourceAlpha" operator="in" result="effect1_backgroundBlur_117:210"/>
<feBlend mode="normal" in="SourceGraphic" in2="effect1_backgroundBlur_117:210" result="shape"/>
</filter>
</defs>
</svg>
