<svg width="143" height="38" viewBox="0 0 143 38" fill="none" xmlns="http://www.w3.org/2000/svg">
<path d="M54.0367 13.3675V17.237H60.277V20.834H54.0367V25.0305H61.0945V28.7638H49.377V9.63428H61.0945V13.3675H54.0367Z" fill="#022F96"/>
<path d="M63.1931 21.1338C63.1931 19.5714 63.4838 18.1999 64.0651 17.019C64.6646 15.8382 65.473 14.9299 66.4904 14.294C67.5077 13.6582 68.6431 13.3403 69.8966 13.3403C70.9685 13.3403 71.9041 13.5583 72.7034 13.9943C73.5209 14.4303 74.1476 15.0025 74.5836 15.711V13.5583H79.2434V28.7638H74.5836V26.611C74.1295 27.3195 73.4936 27.8918 72.6761 28.3278C71.8768 28.7638 70.9412 28.9818 69.8694 28.9818C68.6341 28.9818 67.5077 28.6639 66.4904 28.028C65.473 27.374 64.6646 26.4566 64.0651 25.2758C63.4838 24.0768 63.1931 22.6961 63.1931 21.1338ZM74.5836 21.161C74.5836 19.9984 74.2566 19.0809 73.6026 18.4088C72.9668 17.7366 72.1856 17.4005 71.2591 17.4005C70.3326 17.4005 69.5424 17.7366 68.8884 18.4088C68.2526 19.0628 67.9346 19.9711 67.9346 21.1338C67.9346 22.2964 68.2526 23.2229 68.8884 23.9133C69.5424 24.5854 70.3326 24.9215 71.2591 24.9215C72.1856 24.9215 72.9668 24.5854 73.6026 23.9133C74.2566 23.2411 74.5836 22.3237 74.5836 21.161Z" fill="#022F96"/>
<path d="M88.8003 28.9818C87.4741 28.9818 86.2933 28.7547 85.2578 28.3005C84.2223 27.8464 83.4048 27.2287 82.8053 26.4475C82.2058 25.6482 81.8697 24.758 81.797 23.777H86.4023C86.4568 24.3039 86.702 24.7308 87.138 25.0578C87.574 25.3848 88.1099 25.5483 88.7458 25.5483C89.3271 25.5483 89.7722 25.4393 90.081 25.2213C90.408 24.9851 90.5715 24.6854 90.5715 24.322C90.5715 23.886 90.3444 23.5681 89.8903 23.3683C89.4361 23.1503 88.7003 22.9141 87.683 22.6598C86.593 22.4054 85.6847 22.142 84.958 21.8695C84.2313 21.5789 83.6046 21.1338 83.0778 20.5343C82.5509 19.9166 82.2875 19.09 82.2875 18.0545C82.2875 17.1825 82.5237 16.3923 82.996 15.6838C83.4865 14.9571 84.195 14.3849 85.1215 13.967C86.0662 13.5492 87.1834 13.3403 88.4733 13.3403C90.3808 13.3403 91.8795 13.8126 92.9695 14.7573C94.0777 15.7019 94.7135 16.9554 94.877 18.5178H90.5715C90.4988 17.9909 90.2627 17.5731 89.863 17.2643C89.4815 16.9554 88.9728 16.801 88.337 16.801C87.792 16.801 87.3742 16.91 87.0835 17.128C86.7928 17.3279 86.6475 17.6094 86.6475 17.9728C86.6475 18.4088 86.8746 18.7358 87.3288 18.9538C87.8011 19.1718 88.5278 19.3898 89.5088 19.6078C90.6351 19.8984 91.5525 20.1891 92.261 20.4798C92.9695 20.7523 93.5872 21.2064 94.114 21.8423C94.659 22.4599 94.9406 23.2956 94.9588 24.3493C94.9588 25.2394 94.7044 26.0388 94.1958 26.7473C93.7053 27.4376 92.9877 27.9826 92.043 28.3823C91.1165 28.7819 90.0356 28.9818 88.8003 28.9818Z" fill="#022F96"/>
<path d="M112.143 20.9158C112.143 21.3518 112.116 21.8059 112.061 22.2783H101.516C101.588 23.2229 101.888 23.9496 102.415 24.4583C102.96 24.9488 103.623 25.194 104.404 25.194C105.567 25.194 106.375 24.7035 106.829 23.7225H111.789C111.535 24.7217 111.071 25.6209 110.399 26.4203C109.745 27.2196 108.919 27.8464 107.919 28.3005C106.92 28.7547 105.803 28.9818 104.568 28.9818C103.078 28.9818 101.752 28.6639 100.589 28.028C99.4264 27.3922 98.5181 26.4839 97.8641 25.303C97.2101 24.1222 96.8831 22.7415 96.8831 21.161C96.8831 19.5805 97.201 18.1999 97.8368 17.019C98.4908 15.8382 99.3992 14.9299 100.562 14.294C101.725 13.6582 103.06 13.3403 104.568 13.3403C106.039 13.3403 107.347 13.6491 108.492 14.2668C109.636 14.8844 110.526 15.7655 111.162 16.91C111.816 18.0545 112.143 19.3898 112.143 20.9158ZM107.374 19.6895C107.374 18.8902 107.102 18.2544 106.557 17.782C106.012 17.3097 105.331 17.0735 104.513 17.0735C103.732 17.0735 103.069 17.3006 102.524 17.7548C101.997 18.2089 101.67 18.8539 101.543 19.6895H107.374Z" fill="#022F96"/>
<path d="M122.719 11.9778C121.902 11.9778 121.23 11.7416 120.703 11.2693C120.194 10.7788 119.94 10.1793 119.94 9.47078C119.94 8.74411 120.194 8.14461 120.703 7.67227C121.23 7.18177 121.902 6.93652 122.719 6.93652C123.519 6.93652 124.173 7.18177 124.682 7.67227C125.208 8.14461 125.472 8.74411 125.472 9.47078C125.472 10.1793 125.208 10.7788 124.682 11.2693C124.173 11.7416 123.519 11.9778 122.719 11.9778ZM125.036 13.5583V28.7638H120.376V13.5583H125.036Z" fill="#022F96"/>
<path d="M142.174 9.63428V13.3675H137.105V28.7638H132.446V13.3675H127.377V9.63428H142.174Z" fill="#022F96"/>
<rect width="37.8472" height="37.8472" rx="10" fill="#022F96"/>
<path d="M17.5068 23.2363L16.9824 22.9917C16.9369 22.9706 16.8927 22.9459 16.8514 22.9175C15.9005 22.264 15.4004 21.418 15.3509 20.3796C15.3208 19.7469 16.0154 19.4138 16.5894 19.6815L22.656 22.5104C23.4463 22.879 24.137 22.7734 24.728 22.1938C24.9182 22.0152 25.0645 21.8161 25.1668 21.5966L25.4739 20.938C26.9071 17.8646 26.877 15.178 25.3838 12.8781C24.7982 12.0705 24.0005 11.4313 22.9907 10.9604C21.6296 10.3257 20.2482 10.1359 18.8464 10.3909C16.3208 10.7633 14.2961 12.4116 12.7721 15.3358C12.6223 15.5541 12.5162 15.7711 12.4538 15.987C12.4398 16.0355 12.4245 16.084 12.4055 16.1308C11.236 19.0176 11.2844 21.6047 12.5508 23.8919C13.2565 25.1296 14.1581 26.0044 15.2558 26.5163C16.772 27.2767 17.8901 27.7447 18.6101 27.9201C19.6345 28.1305 20.5769 28.1156 21.4372 27.8753C22.1922 27.7463 22.6575 27.3218 22.8328 26.6018C23.0726 25.8584 22.9685 25.2219 22.5206 24.6923C21.9644 24.1657 21.3205 23.999 20.5889 24.1924C20.0709 24.2716 19.0435 23.9529 17.5068 23.2363ZM21.2665 14.486C21.7055 14.6908 22.0378 14.9526 22.2632 15.2715C22.8003 15.9484 22.9025 16.8741 22.5699 18.0487C22.5679 18.0555 22.5654 18.0623 22.5624 18.0688V18.0688C22.531 18.1361 22.4509 18.1653 22.3835 18.1339L18.1911 16.1789C17.6256 15.9152 17.4296 15.1861 17.9167 14.7962C18.3678 14.4351 18.8741 14.2075 19.4357 14.1134C20.0415 14.0752 20.542 14.1482 20.9372 14.3325L21.2665 14.486Z" fill="#FEFEFF"/>
</svg>
