<svg width="24" height="24" viewBox="0 0 24 24" fill="none" xmlns="http://www.w3.org/2000/svg">
<path d="M14.97 9.61679C15.2641 9.61687 15.548 9.72494 15.7676 9.9205C15.9873 10.1161 16.1275 10.3855 16.1616 10.6776L16.17 10.8168V16.0584C16.1779 17.1526 15.7564 18.2063 14.9961 18.9933C14.2357 19.7803 13.1972 20.2378 12.1033 20.2676C11.0095 20.2975 9.94754 19.8973 9.14544 19.1529C8.34334 18.4086 7.86504 17.3794 7.81321 16.2864L7.80721 16.0584V10.8168C7.80729 10.5227 7.91536 10.2389 8.11092 10.0192C8.30648 9.79951 8.57589 9.65931 8.86801 9.62519L9.00721 9.61679H14.97ZM6.93001 9.61679C6.75541 9.91807 6.64891 10.2539 6.61801 10.6008L6.60721 10.8168V16.0584L6.61321 16.3104C6.64921 17.082 6.84721 17.8104 7.17481 18.4644C6.66951 18.6766 6.12069 18.7646 5.57438 18.7208C5.02807 18.6771 4.50021 18.503 4.03509 18.2132C3.56996 17.9233 3.18114 17.5261 2.90123 17.0549C2.62132 16.5837 2.45849 16.0523 2.42641 15.5052L2.42041 15.3036V10.8168C2.42045 10.5229 2.52836 10.2392 2.72367 10.0195C2.91898 9.7999 3.18811 9.65958 3.48001 9.62519L3.62041 9.61679H6.92881H6.93001ZM17.0484 9.61679H20.3892C20.6833 9.61687 20.9672 9.72494 21.1868 9.9205C21.4065 10.1161 21.5467 10.3855 21.5808 10.6776L21.5892 10.8168V15.3048C21.5893 15.8723 21.4484 16.4309 21.1792 16.9305C20.9101 17.4301 20.5211 17.855 20.0471 18.1672C19.5732 18.4793 19.0292 18.6689 18.4639 18.7189C17.8986 18.7689 17.3298 18.6777 16.8084 18.4536C17.1309 17.806 17.3187 17.0998 17.3604 16.3776L17.37 16.0584V10.8168L17.3628 10.638C17.3366 10.2782 17.2291 9.92902 17.0484 9.61679V9.61679ZM11.9868 3.58679C12.6957 3.58679 13.3756 3.86841 13.8769 4.3697C14.3782 4.87098 14.6598 5.55087 14.6598 6.25979C14.6598 6.96872 14.3782 7.6486 13.8769 8.14989C13.3756 8.65117 12.6957 8.93279 11.9868 8.93279C11.2779 8.93279 10.598 8.65117 10.0967 8.14989C9.59543 7.6486 9.31381 6.96872 9.31381 6.25979C9.31381 5.55087 9.59543 4.87098 10.0967 4.3697C10.598 3.86841 11.2779 3.58679 11.9868 3.58679V3.58679ZM17.9712 4.34039C18.5802 4.34039 19.1643 4.58231 19.5949 5.01293C20.0255 5.44355 20.2674 6.0276 20.2674 6.63659C20.2674 7.24558 20.0255 7.82963 19.5949 8.26025C19.1643 8.69087 18.5802 8.93279 17.9712 8.93279C17.3622 8.93279 16.7782 8.69087 16.3476 8.26025C15.9169 7.82963 15.675 7.24558 15.675 6.63659C15.675 6.0276 15.9169 5.44355 16.3476 5.01293C16.7782 4.58231 17.3622 4.34039 17.9712 4.34039V4.34039ZM6.02041 4.34039C6.6294 4.34039 7.21345 4.58231 7.64407 5.01293C8.07469 5.44355 8.31661 6.0276 8.31661 6.63659C8.31661 7.24558 8.07469 7.82963 7.64407 8.26025C7.21345 8.69087 6.6294 8.93279 6.02041 8.93279C5.41142 8.93279 4.82737 8.69087 4.39675 8.26025C3.96613 7.82963 3.72421 7.24558 3.72421 6.63659C3.72421 6.0276 3.96613 5.44355 4.39675 5.01293C4.82737 4.58231 5.41142 4.34039 6.02041 4.34039V4.34039Z" fill="white"/>
</svg>
