<svg width="24" height="24" viewBox="0 0 24 24" fill="none" xmlns="http://www.w3.org/2000/svg">
<path d="M3.59985 6.59998C3.59985 5.80433 3.91592 5.04126 4.47853 4.47866C5.04114 3.91605 5.8042 3.59998 6.59985 3.59998H17.3999C18.1955 3.59998 18.9586 3.91605 19.5212 4.47866C20.0838 5.04126 20.3999 5.80433 20.3999 6.59998V11.52C19.1576 10.8854 17.7462 10.6607 16.3683 10.8782C14.9904 11.0957 13.7168 11.7442 12.7304 12.7306C11.7441 13.717 11.0956 14.9905 10.8781 16.3684C10.6606 17.7463 10.8852 19.1577 11.5199 20.4H6.59985C5.8042 20.4 5.04114 20.0839 4.47853 19.5213C3.91592 18.9587 3.59985 18.1956 3.59985 17.4V6.59998ZM10.6247 8.22478C10.6804 8.16899 10.7247 8.10276 10.7549 8.02988C10.7851 7.95699 10.8006 7.87887 10.8006 7.79998C10.8006 7.72108 10.7851 7.64296 10.7549 7.57007C10.7247 7.49719 10.6804 7.43096 10.6247 7.37518C10.5689 7.31939 10.5026 7.27514 10.4298 7.24495C10.3569 7.21476 10.2787 7.19922 10.1999 7.19922C10.121 7.19922 10.0428 7.21476 9.96995 7.24495C9.89707 7.27514 9.83084 7.31939 9.77505 7.37518L7.79985 9.35158L7.02465 8.57518C6.91199 8.46251 6.75918 8.39922 6.59985 8.39922C6.44052 8.39922 6.28772 8.46251 6.17505 8.57518C6.06239 8.68784 5.9991 8.84064 5.9991 8.99998C5.9991 9.15931 6.06239 9.31211 6.17505 9.42478L7.37505 10.6248C7.43079 10.6807 7.497 10.725 7.56989 10.7552C7.64279 10.7855 7.72093 10.801 7.79985 10.801C7.87877 10.801 7.95692 10.7855 8.02981 10.7552C8.10271 10.725 8.16892 10.6807 8.22465 10.6248L10.6247 8.22478V8.22478ZM10.6247 13.3752C10.5689 13.3193 10.5027 13.275 10.4298 13.2447C10.3569 13.2145 10.2788 13.1989 10.1999 13.1989C10.1209 13.1989 10.0428 13.2145 9.96989 13.2447C9.897 13.275 9.83079 13.3193 9.77505 13.3752L7.79985 15.3516L7.02465 14.5752C6.91199 14.4625 6.75918 14.3992 6.59985 14.3992C6.44052 14.3992 6.28772 14.4625 6.17505 14.5752C6.06239 14.6878 5.9991 14.8406 5.9991 15C5.9991 15.1593 6.06239 15.3121 6.17505 15.4248L7.37505 16.6248C7.43079 16.6807 7.497 16.725 7.56989 16.7552C7.64279 16.7855 7.72093 16.801 7.79985 16.801C7.87877 16.801 7.95692 16.7855 8.02981 16.7552C8.10271 16.725 8.16892 16.6807 8.22465 16.6248L10.6247 14.2248C10.6805 14.169 10.7249 14.1028 10.7551 14.0299C10.7854 13.957 10.8009 13.8789 10.8009 13.8C10.8009 13.7211 10.7854 13.6429 10.7551 13.57C10.7249 13.4971 10.6805 13.4309 10.6247 13.3752V13.3752ZM12.5999 8.39998C12.4407 8.39998 12.2881 8.46319 12.1756 8.57571C12.0631 8.68823 11.9999 8.84085 11.9999 8.99998C11.9999 9.15911 12.0631 9.31172 12.1756 9.42424C12.2881 9.53676 12.4407 9.59998 12.5999 9.59998H16.1999C16.359 9.59998 16.5116 9.53676 16.6241 9.42424C16.7366 9.31172 16.7999 9.15911 16.7999 8.99998C16.7999 8.84085 16.7366 8.68823 16.6241 8.57571C16.5116 8.46319 16.359 8.39998 16.1999 8.39998H12.5999ZM17.3999 22.8C18.832 22.8 20.2055 22.231 21.2182 21.2184C22.2309 20.2057 22.7999 18.8321 22.7999 17.4C22.7999 15.9678 22.2309 14.5943 21.2182 13.5816C20.2055 12.5689 18.832 12 17.3999 12C15.9677 12 14.5942 12.5689 13.5815 13.5816C12.5688 14.5943 11.9999 15.9678 11.9999 17.4C11.9999 18.8321 12.5688 20.2057 13.5815 21.2184C14.5942 22.231 15.9677 22.8 17.3999 22.8V22.8ZM17.3999 14.4C17.559 14.4 17.7116 14.4632 17.8241 14.5757C17.9366 14.6882 17.9999 14.8408 17.9999 15V16.8H19.7999C19.959 16.8 20.1116 16.8632 20.2241 16.9757C20.3366 17.0882 20.3999 17.2408 20.3999 17.4C20.3999 17.5591 20.3366 17.7117 20.2241 17.8242C20.1116 17.9368 19.959 18 19.7999 18H17.9999V19.8C17.9999 19.9591 17.9366 20.1117 17.8241 20.2242C17.7116 20.3368 17.559 20.4 17.3999 20.4C17.2407 20.4 17.0881 20.3368 16.9756 20.2242C16.8631 20.1117 16.7999 19.9591 16.7999 19.8V18H14.9999C14.8407 18 14.6881 17.9368 14.5756 17.8242C14.4631 17.7117 14.3999 17.5591 14.3999 17.4C14.3999 17.2408 14.4631 17.0882 14.5756 16.9757C14.6881 16.8632 14.8407 16.8 14.9999 16.8H16.7999V15C16.7999 14.8408 16.8631 14.6882 16.9756 14.5757C17.0881 14.4632 17.2407 14.4 17.3999 14.4Z" fill="white"/>
</svg>
