<svg width="24" height="24" viewBox="0 0 24 24" fill="none" xmlns="http://www.w3.org/2000/svg">
<path d="M21.8668 19.57L21.6401 19.37C20.9971 18.7971 20.4342 18.14 19.9668 17.4167C19.4563 16.4184 19.1503 15.3282 19.0668 14.21V10.9167C19.0712 9.16041 18.4341 7.46298 17.2753 6.14332C16.1164 4.82365 14.5156 3.97257 12.7735 3.75V2.89C12.7735 2.65396 12.6797 2.42758 12.5128 2.26068C12.3459 2.09377 12.1195 2 11.8835 2C11.6474 2 11.421 2.09377 11.2541 2.26068C11.0872 2.42758 10.9935 2.65396 10.9935 2.89V3.76333C9.26696 4.00195 7.68544 4.85817 6.54181 6.1734C5.39818 7.48864 4.76994 9.17376 4.77346 10.9167V14.21C4.68996 15.3282 4.38397 16.4184 3.87346 17.4167C3.41404 18.1382 2.86025 18.7952 2.22679 19.37L2.00012 19.57V21.45H21.8668V19.57Z" fill="#A4AFB4"/>
<path d="M10.2133 21.3333C10.2718 21.7559 10.4812 22.1431 10.8028 22.4233C11.1245 22.7035 11.5367 22.8579 11.9633 22.8579C12.3899 22.8579 12.8021 22.7035 13.1238 22.4233C13.4455 22.1431 13.6549 21.7559 13.7133 21.3333H10.2133Z" fill="#A4AFB4"/>
</svg>
