<svg width="24" height="24" viewBox="0 0 24 24" fill="none" xmlns="http://www.w3.org/2000/svg">
<path d="M21.8667 19.57L21.64 19.37C20.997 18.7971 20.4341 18.14 19.9667 17.4167C19.4561 16.4184 19.1502 15.3282 19.0667 14.21V10.9167C19.0711 9.16041 18.434 7.46298 17.2752 6.14332C16.1163 4.82365 14.5154 3.97257 12.7733 3.75V2.89C12.7733 2.65396 12.6796 2.42758 12.5127 2.26068C12.3457 2.09377 12.1194 2 11.8833 2C11.6473 2 11.4209 2.09377 11.254 2.26068C11.0871 2.42758 10.9933 2.65396 10.9933 2.89V3.76333C9.26684 4.00195 7.68531 4.85817 6.54169 6.1734C5.39806 7.48864 4.76982 9.17376 4.77333 10.9167V14.21C4.68984 15.3282 4.38385 16.4184 3.87333 17.4167C3.41392 18.1382 2.86013 18.7952 2.22667 19.37L2 19.57V21.45H21.8667V19.57Z" fill="#A4AFB4"/>
<path d="M10.2134 21.3333C10.2718 21.7559 10.4812 22.1431 10.8029 22.4233C11.1246 22.7035 11.5368 22.8579 11.9634 22.8579C12.39 22.8579 12.8022 22.7035 13.1239 22.4233C13.4455 22.1431 13.6549 21.7559 13.7134 21.3333H10.2134Z" fill="#A4AFB4"/>
<circle cx="19" cy="5" r="5" fill="#022F96"/>
</svg>
