<svg width="24" height="24" viewBox="0 0 24 24" fill="none" xmlns="http://www.w3.org/2000/svg">
<path id="svgInternalID" d="M20.2501 3.75H3.75012C3.35243 3.75045 2.97116 3.90863 2.68996 4.18983C2.40875 4.47104 2.25057 4.85231 2.25012 5.25V17.2499C2.25057 17.6476 2.40875 18.0289 2.68996 18.3101C2.97116 18.5913 3.35243 18.7495 3.75012 18.7499L9.32543 18.75L10.7139 21.064C10.8471 21.2861 11.0357 21.47 11.2611 21.5976C11.4865 21.7252 11.7411 21.7923 12.0001 21.7923C12.2592 21.7923 12.5138 21.7252 12.7392 21.5976C12.9646 21.47 13.1531 21.2861 13.2864 21.064L14.6747 18.75H20.25C20.6477 18.7496 21.029 18.5914 21.3102 18.3102C21.5915 18.029 21.7497 17.6477 21.7501 17.25V5.25C21.7497 4.85231 21.5915 4.47104 21.3103 4.18983C21.0291 3.90863 20.6478 3.75045 20.2501 3.75ZM7.50012 12.375C7.27762 12.375 7.06011 12.309 6.87511 12.1854C6.6901 12.0618 6.54591 11.8861 6.46076 11.6805C6.37561 11.475 6.35333 11.2488 6.39674 11.0305C6.44015 10.8123 6.54729 10.6118 6.70463 10.4545C6.86196 10.2972 7.06242 10.19 7.28065 10.1466C7.49887 10.1032 7.72507 10.1255 7.93064 10.2106C8.13621 10.2958 8.31191 10.44 8.43553 10.625C8.55914 10.81 8.62512 11.0275 8.62512 11.25C8.62512 11.5484 8.5066 11.8345 8.29562 12.0455C8.08464 12.2565 7.79849 12.375 7.50012 12.375ZM12.0001 12.375C11.7776 12.375 11.5601 12.309 11.3751 12.1854C11.1901 12.0618 11.0459 11.8861 10.9608 11.6805C10.8756 11.475 10.8533 11.2488 10.8967 11.0305C10.9401 10.8123 11.0473 10.6118 11.2046 10.4545C11.362 10.2972 11.5624 10.19 11.7806 10.1466C11.9989 10.1032 12.2251 10.1255 12.4306 10.2106C12.6362 10.2958 12.8119 10.44 12.9355 10.625C13.0591 10.81 13.1251 11.0275 13.1251 11.25C13.1251 11.5484 13.0066 11.8345 12.7956 12.0455C12.5846 12.2565 12.2985 12.375 12.0001 12.375ZM16.5001 12.375C16.2776 12.375 16.0601 12.309 15.8751 12.1854C15.6901 12.0618 15.5459 11.8861 15.4608 11.6805C15.3756 11.475 15.3533 11.2488 15.3967 11.0305C15.4401 10.8123 15.5473 10.6118 15.7046 10.4545C15.862 10.2972 16.0624 10.19 16.2806 10.1466C16.4989 10.1032 16.7251 10.1255 16.9306 10.2106C17.1362 10.2958 17.3119 10.44 17.4355 10.625C17.5591 10.81 17.6251 11.0275 17.6251 11.25C17.6251 11.5484 17.5066 11.8345 17.2956 12.0455C17.0846 12.2565 16.7985 12.375 16.5001 12.375Z" fill="#A4AFB4"/>
</svg>
