<svg width="40" height="40" viewBox="0 0 40 40" fill="none" xmlns="http://www.w3.org/2000/svg">
<circle cx="20" cy="20" r="20" fill="#F1F5FF"/>
<path d="M15.7143 20.8571L20.4286 20.8576C20.6447 20.8576 20.8529 20.9393 21.0114 21.0864C21.1699 21.2334 21.2669 21.4349 21.2831 21.6504L21.2857 21.7147V22.7857C21.2853 24.5857 19.4484 25.1429 18.0714 25.1429C16.7219 25.1429 14.9304 24.608 14.8593 22.892L14.8571 22.7857V21.7143C14.8571 21.2626 15.2069 20.8923 15.65 20.8597L15.7143 20.8571ZM21.38 20.8576L24.2857 20.8571C24.7374 20.8571 25.1077 21.2069 25.1403 21.65L25.1429 21.7143V22.5714C25.1424 24.1824 23.6729 24.7143 22.5714 24.7143C22.118 24.7143 21.6033 24.6221 21.1533 24.4036C21.4756 24.0204 21.6847 23.5327 21.7113 22.919L21.7143 22.7857V21.7147C21.7143 21.4139 21.6076 21.1404 21.434 20.9219L21.38 20.8571H24.2857L21.38 20.8576ZM18.0714 15.2857C18.381 15.2857 18.6875 15.3468 18.9735 15.4652C19.2595 15.5837 19.5194 15.7574 19.7383 15.9763C19.9572 16.1952 20.1308 16.4551 20.2492 16.7412C20.3677 17.0272 20.4286 17.3337 20.4286 17.6433C20.4285 17.9529 20.3675 18.2594 20.2491 18.5454C20.1306 18.8314 19.9569 19.0913 19.738 19.3101C19.519 19.529 19.2592 19.7026 18.9731 19.8211C18.6871 19.9395 18.3806 20.0005 18.071 20.0004C17.4458 20.0004 16.8462 19.752 16.4042 19.3098C15.9621 18.8677 15.7138 18.2681 15.7139 17.6429C15.7139 17.0177 15.9623 16.4181 16.4045 15.976C16.8466 15.534 17.4462 15.2857 18.0714 15.2857ZM22.7857 16.1429C23.039 16.1429 23.2898 16.1927 23.5238 16.2897C23.7577 16.3866 23.9703 16.5286 24.1494 16.7077C24.3285 16.8868 24.4706 17.0994 24.5675 17.3334C24.6644 17.5674 24.7143 17.8182 24.7143 18.0714C24.7143 18.3247 24.6644 18.5755 24.5675 18.8095C24.4706 19.0435 24.3285 19.2561 24.1494 19.4351C23.9703 19.6142 23.7577 19.7563 23.5238 19.8532C23.2898 19.9501 23.039 20 22.7857 20C22.2742 20 21.7837 19.7968 21.422 19.4351C21.0603 19.0735 20.8571 18.5829 20.8571 18.0714C20.8571 17.5599 21.0603 17.0694 21.422 16.7077C21.7837 16.3461 22.2742 16.1429 22.7857 16.1429Z" fill="#3D3A2C"/>
</svg>
