<svg width="12" height="12" viewBox="0 0 12 12" fill="none" xmlns="http://www.w3.org/2000/svg">
<path d="M1.71429 6.85715L6.42858 6.85758C6.64475 6.85762 6.85292 6.93934 7.0114 7.08637C7.16987 7.23339 7.26693 7.43487 7.28315 7.65043L7.28572 7.71472V8.78572C7.28529 10.5857 5.44843 11.1429 4.07143 11.1429C2.72186 11.1429 0.930433 10.608 0.85929 8.89201L0.857147 8.78572V7.71429C0.857147 7.26258 1.20686 6.89229 1.65 6.85972L1.71429 6.85715ZM7.38 6.85758L10.2857 6.85715C10.7374 6.85715 11.1077 7.20686 11.1403 7.65001L11.1429 7.71429V8.57143C11.1424 10.1824 9.67286 10.7143 8.57143 10.7143C8.118 10.7143 7.60329 10.6221 7.15329 10.4036C7.47557 10.0204 7.68472 9.53272 7.71129 8.91901L7.71429 8.78572V7.71472C7.71429 7.41386 7.60758 7.14043 7.434 6.92186L7.38 6.85715H10.2857L7.38 6.85758ZM4.07143 1.28572C4.38101 1.28575 4.68754 1.34675 4.97354 1.46525C5.25953 1.58374 5.51939 1.75741 5.73827 1.97633C5.95715 2.19525 6.13077 2.45514 6.24921 2.74115C6.36766 3.02717 6.4286 3.33372 6.42858 3.64329C6.42855 3.95286 6.36754 4.2594 6.24905 4.5454C6.13056 4.83139 5.95689 5.09125 5.73797 5.31013C5.51905 5.52901 5.25916 5.70263 4.97314 5.82107C4.68712 5.93952 4.38058 6.00046 4.071 6.00043C3.44579 6.00038 2.84621 5.75196 2.40416 5.30983C1.96211 4.8677 1.7138 4.26807 1.71386 3.64286C1.71392 3.01765 1.96234 2.41807 2.40447 1.97602C2.8466 1.53397 3.44622 1.28566 4.07143 1.28572ZM8.78572 2.14286C9.03898 2.14286 9.28977 2.19275 9.52375 2.28967C9.75774 2.38659 9.97034 2.52864 10.1494 2.70773C10.3285 2.88681 10.4706 3.09942 10.5675 3.3334C10.6644 3.56739 10.7143 3.81817 10.7143 4.07143C10.7143 4.3247 10.6644 4.57548 10.5675 4.80947C10.4706 5.04345 10.3285 5.25606 10.1494 5.43514C9.97034 5.61422 9.75774 5.75628 9.52375 5.8532C9.28977 5.95012 9.03898 6.00001 8.78572 6.00001C8.27423 6.00001 7.78369 5.79682 7.42201 5.43514C7.06033 5.07346 6.85715 4.58292 6.85715 4.07143C6.85715 3.55995 7.06033 3.06941 7.42201 2.70773C7.78369 2.34605 8.27423 2.14286 8.78572 2.14286Z" fill="#3D3A2C"/>
</svg>
