<svg width="24" height="24" viewBox="0 0 24 24" fill="none" xmlns="http://www.w3.org/2000/svg">
<path d="M18.7499 2.53594C21.7031 4.64531 23.6249 8.09531 23.6249 12C23.6249 18.4125 18.4312 23.6109 12.0234 23.625C5.62495 23.6391 0.384323 18.4219 0.374948 12.0187C0.37026 8.11406 2.29214 4.65469 5.24057 2.54063C5.78901 2.15156 6.55307 2.31563 6.8812 2.90156L7.62182 4.21875C7.89839 4.71094 7.76714 5.33437 7.31245 5.67188C5.36714 7.11562 4.12495 9.40312 4.12495 11.9953C4.12026 16.3219 7.61714 19.875 11.9999 19.875C16.2937 19.875 19.9031 16.3969 19.8749 11.9484C19.8609 9.52031 18.7171 7.17656 16.6828 5.66719C16.2281 5.32969 16.1015 4.70625 16.3781 4.21875L17.1187 2.90156C17.4468 2.32031 18.2062 2.14687 18.7499 2.53594ZM13.8749 12.375V1.125C13.8749 0.501562 13.3734 0 12.7499 0H11.2499C10.6265 0 10.1249 0.501562 10.1249 1.125V12.375C10.1249 12.9984 10.6265 13.5 11.2499 13.5H12.7499C13.3734 13.5 13.8749 12.9984 13.8749 12.375Z" fill="#011E56"/>
</svg>
