<svg width="40" height="39" viewBox="0 0 40 39" fill="none" xmlns="http://www.w3.org/2000/svg">
<ellipse cx="20" cy="19.2982" rx="20" ry="19.2982" fill="#F1F5FF"/>
<path d="M23.5 15H23V14.5C23 14.2 22.8 14 22.5 14C22.2 14 22 14.2 22 14.5V15H18V14.5C18 14.2 17.8 14 17.5 14C17.2 14 17 14.2 17 14.5V15H16.5C15.65 15 15 15.65 15 16.5V17H25V16.5C25 15.65 24.35 15 23.5 15ZM15 22.5C15 23.35 15.65 24 16.5 24H23.5C24.35 24 25 23.35 25 22.5V18H15V22.5ZM22.5 19C22.8 19 23 19.2 23 19.5C23 19.8 22.8 20 22.5 20C22.2 20 22 19.8 22 19.5C22 19.2 22.2 19 22.5 19ZM22.5 21C22.8 21 23 21.2 23 21.5C23 21.8 22.8 22 22.5 22C22.2 22 22 21.8 22 21.5C22 21.2 22.2 21 22.5 21ZM20 19C20.3 19 20.5 19.2 20.5 19.5C20.5 19.8 20.3 20 20 20C19.7 20 19.5 19.8 19.5 19.5C19.5 19.2 19.7 19 20 19ZM20 21C20.3 21 20.5 21.2 20.5 21.5C20.5 21.8 20.3 22 20 22C19.7 22 19.5 21.8 19.5 21.5C19.5 21.2 19.7 21 20 21ZM17.5 19C17.8 19 18 19.2 18 19.5C18 19.8 17.8 20 17.5 20C17.2 20 17 19.8 17 19.5C17 19.2 17.2 19 17.5 19ZM17.5 21C17.8 21 18 21.2 18 21.5C18 21.8 17.8 22 17.5 22C17.2 22 17 21.8 17 21.5C17 21.2 17.2 21 17.5 21Z" fill="#3D3A2C"/>
</svg>
