<svg width="24" height="24" viewBox="0 0 24 24" fill="none" xmlns="http://www.w3.org/2000/svg">
<path d="M19 4.00006H18V3.00006C18 2.40006 17.6 2.00006 17 2.00006C16.4 2.00006 16 2.40006 16 3.00006V4.00006H8V3.00006C8 2.40006 7.6 2.00006 7 2.00006C6.4 2.00006 6 2.40006 6 3.00006V4.00006H5C3.3 4.00006 2 5.30006 2 7.00006V8.00006H22V7.00006C22 5.30006 20.7 4.00006 19 4.00006ZM2 19.0001C2 20.7001 3.3 22.0001 5 22.0001H19C20.7 22.0001 22 20.7001 22 19.0001V10.0001H2V19.0001ZM17 12.0001C17.6 12.0001 18 12.4001 18 13.0001C18 13.6001 17.6 14.0001 17 14.0001C16.4 14.0001 16 13.6001 16 13.0001C16 12.4001 16.4 12.0001 17 12.0001ZM17 16.0001C17.6 16.0001 18 16.4001 18 17.0001C18 17.6001 17.6 18.0001 17 18.0001C16.4 18.0001 16 17.6001 16 17.0001C16 16.4001 16.4 16.0001 17 16.0001ZM12 12.0001C12.6 12.0001 13 12.4001 13 13.0001C13 13.6001 12.6 14.0001 12 14.0001C11.4 14.0001 11 13.6001 11 13.0001C11 12.4001 11.4 12.0001 12 12.0001ZM12 16.0001C12.6 16.0001 13 16.4001 13 17.0001C13 17.6001 12.6 18.0001 12 18.0001C11.4 18.0001 11 17.6001 11 17.0001C11 16.4001 11.4 16.0001 12 16.0001ZM7 12.0001C7.6 12.0001 8 12.4001 8 13.0001C8 13.6001 7.6 14.0001 7 14.0001C6.4 14.0001 6 13.6001 6 13.0001C6 12.4001 6.4 12.0001 7 12.0001ZM7 16.0001C7.6 16.0001 8 16.4001 8 17.0001C8 17.6001 7.6 18.0001 7 18.0001C6.4 18.0001 6 17.6001 6 17.0001C6 16.4001 6.4 16.0001 7 16.0001Z" fill="white"/>
</svg>
