<svg width="24" height="24" viewBox="0 0 24 24" fill="none" xmlns="http://www.w3.org/2000/svg">
<path d="M19.0001 4.00006H18.0001V3.00006C18.0001 2.40006 17.6001 2.00006 17.0001 2.00006C16.4001 2.00006 16.0001 2.40006 16.0001 3.00006V4.00006H8.00006V3.00006C8.00006 2.40006 7.60006 2.00006 7.00006 2.00006C6.40006 2.00006 6.00006 2.40006 6.00006 3.00006V4.00006H5.00006C3.30006 4.00006 2.00006 5.30006 2.00006 7.00006V8.00006H22.0001V7.00006C22.0001 5.30006 20.7001 4.00006 19.0001 4.00006ZM2.00006 19.0001C2.00006 20.7001 3.30006 22.0001 5.00006 22.0001H19.0001C20.7001 22.0001 22.0001 20.7001 22.0001 19.0001V10.0001H2.00006V19.0001ZM17.0001 12.0001C17.6001 12.0001 18.0001 12.4001 18.0001 13.0001C18.0001 13.6001 17.6001 14.0001 17.0001 14.0001C16.4001 14.0001 16.0001 13.6001 16.0001 13.0001C16.0001 12.4001 16.4001 12.0001 17.0001 12.0001ZM17.0001 16.0001C17.6001 16.0001 18.0001 16.4001 18.0001 17.0001C18.0001 17.6001 17.6001 18.0001 17.0001 18.0001C16.4001 18.0001 16.0001 17.6001 16.0001 17.0001C16.0001 16.4001 16.4001 16.0001 17.0001 16.0001ZM12.0001 12.0001C12.6001 12.0001 13.0001 12.4001 13.0001 13.0001C13.0001 13.6001 12.6001 14.0001 12.0001 14.0001C11.4001 14.0001 11.0001 13.6001 11.0001 13.0001C11.0001 12.4001 11.4001 12.0001 12.0001 12.0001ZM12.0001 16.0001C12.6001 16.0001 13.0001 16.4001 13.0001 17.0001C13.0001 17.6001 12.6001 18.0001 12.0001 18.0001C11.4001 18.0001 11.0001 17.6001 11.0001 17.0001C11.0001 16.4001 11.4001 16.0001 12.0001 16.0001ZM7.00006 12.0001C7.60006 12.0001 8.00006 12.4001 8.00006 13.0001C8.00006 13.6001 7.60006 14.0001 7.00006 14.0001C6.40006 14.0001 6.00006 13.6001 6.00006 13.0001C6.00006 12.4001 6.40006 12.0001 7.00006 12.0001ZM7.00006 16.0001C7.60006 16.0001 8.00006 16.4001 8.00006 17.0001C8.00006 17.6001 7.60006 18.0001 7.00006 18.0001C6.40006 18.0001 6.00006 17.6001 6.00006 17.0001C6.00006 16.4001 6.40006 16.0001 7.00006 16.0001Z" fill="#A4AFB4"/>
</svg>
