<svg width="24" height="24" viewBox="0 0 24 24" fill="none" xmlns="http://www.w3.org/2000/svg">
<path d="M3.59998 6.59998C3.59998 5.80433 3.91605 5.04126 4.47866 4.47866C5.04126 3.91605 5.80433 3.59998 6.59998 3.59998H17.4C18.1956 3.59998 18.9587 3.91605 19.5213 4.47866C20.0839 5.04126 20.4 5.80433 20.4 6.59998V11.52C19.1577 10.8854 17.7463 10.6607 16.3684 10.8782C14.9905 11.0957 13.717 11.7442 12.7306 12.7306C11.7442 13.717 11.0957 14.9905 10.8782 16.3684C10.6607 17.7463 10.8854 19.1577 11.52 20.4H6.59998C5.80433 20.4 5.04126 20.0839 4.47866 19.5213C3.91605 18.9587 3.59998 18.1956 3.59998 17.4V6.59998ZM10.6248 8.22478C10.6806 8.16899 10.7248 8.10276 10.755 8.02988C10.7852 7.95699 10.8007 7.87887 10.8007 7.79998C10.8007 7.72108 10.7852 7.64296 10.755 7.57008C10.7248 7.49719 10.6806 7.43096 10.6248 7.37518C10.569 7.31939 10.5028 7.27514 10.4299 7.24495C10.357 7.21476 10.2789 7.19922 10.2 7.19922C10.1211 7.19922 10.043 7.21476 9.97007 7.24495C9.89719 7.27514 9.83096 7.31939 9.77518 7.37518L7.79998 9.35158L7.02478 8.57518C6.91211 8.46251 6.75931 8.39922 6.59998 8.39922C6.44064 8.39922 6.28784 8.46251 6.17518 8.57518C6.06251 8.68784 5.99922 8.84064 5.99922 8.99998C5.99922 9.15931 6.06251 9.31211 6.17518 9.42478L7.37518 10.6248C7.43091 10.6807 7.49712 10.725 7.57001 10.7552C7.64291 10.7855 7.72105 10.801 7.79998 10.801C7.8789 10.801 7.95704 10.7855 8.02994 10.7552C8.10283 10.725 8.16904 10.6807 8.22478 10.6248L10.6248 8.22478ZM10.6248 13.3752C10.569 13.3193 10.5028 13.275 10.4299 13.2447C10.357 13.2145 10.2789 13.1989 10.2 13.1989C10.1211 13.1989 10.0429 13.2145 9.97002 13.2447C9.89712 13.275 9.83091 13.3193 9.77518 13.3752L7.79998 15.3516L7.02478 14.5752C6.91211 14.4625 6.75931 14.3992 6.59998 14.3992C6.44064 14.3992 6.28784 14.4625 6.17518 14.5752C6.06251 14.6878 5.99922 14.8406 5.99922 15C5.99922 15.1593 6.06251 15.3121 6.17518 15.4248L7.37518 16.6248C7.43091 16.6807 7.49712 16.725 7.57001 16.7552C7.64291 16.7855 7.72105 16.801 7.79998 16.801C7.8789 16.801 7.95704 16.7855 8.02994 16.7552C8.10283 16.725 8.16904 16.6807 8.22478 16.6248L10.6248 14.2248C10.6807 14.169 10.725 14.1028 10.7552 14.0299C10.7855 13.957 10.801 13.8789 10.801 13.8C10.801 13.7211 10.7855 13.6429 10.7552 13.57C10.725 13.4971 10.6807 13.4309 10.6248 13.3752ZM12.6 8.39998C12.4408 8.39998 12.2882 8.46319 12.1757 8.57571C12.0632 8.68823 12 8.84085 12 8.99998C12 9.15911 12.0632 9.31172 12.1757 9.42424C12.2882 9.53676 12.4408 9.59998 12.6 9.59998H16.2C16.3591 9.59998 16.5117 9.53676 16.6242 9.42424C16.7368 9.31172 16.8 9.15911 16.8 8.99998C16.8 8.84085 16.7368 8.68823 16.6242 8.57571C16.5117 8.46319 16.3591 8.39998 16.2 8.39998H12.6ZM17.4 22.8C18.8321 22.8 20.2057 22.231 21.2184 21.2184C22.231 20.2057 22.8 18.8321 22.8 17.4C22.8 15.9678 22.231 14.5943 21.2184 13.5816C20.2057 12.5689 18.8321 12 17.4 12C15.9678 12 14.5943 12.5689 13.5816 13.5816C12.5689 14.5943 12 15.9678 12 17.4C12 18.8321 12.5689 20.2057 13.5816 21.2184C14.5943 22.231 15.9678 22.8 17.4 22.8ZM17.4 14.4C17.5591 14.4 17.7117 14.4632 17.8242 14.5757C17.9368 14.6882 18 14.8408 18 15V16.8H19.8C19.9591 16.8 20.1117 16.8632 20.2242 16.9757C20.3368 17.0882 20.4 17.2408 20.4 17.4C20.4 17.5591 20.3368 17.7117 20.2242 17.8242C20.1117 17.9368 19.9591 18 19.8 18H18V19.8C18 19.9591 17.9368 20.1117 17.8242 20.2242C17.7117 20.3368 17.5591 20.4 17.4 20.4C17.2408 20.4 17.0882 20.3368 16.9757 20.2242C16.8632 20.1117 16.8 19.9591 16.8 19.8V18H15C14.8408 18 14.6882 17.9368 14.5757 17.8242C14.4632 17.7117 14.4 17.5591 14.4 17.4C14.4 17.2408 14.4632 17.0882 14.5757 16.9757C14.6882 16.8632 14.8408 16.8 15 16.8H16.8V15C16.8 14.8408 16.8632 14.6882 16.9757 14.5757C17.0882 14.4632 17.2408 14.4 17.4 14.4Z" fill="#A4AFB4"/>
</svg>
