<svg width="40" height="40" viewBox="0 0 40 40" fill="none" xmlns="http://www.w3.org/2000/svg">
<ellipse cx="20" cy="19.9904" rx="20" ry="19.9904" fill="#F1F5FF"/>
<path d="M21.3125 12H18.6875C18.2724 12 17.8719 12.153 17.5625 12.4297C17.2532 12.7065 17.0566 13.0875 17.0105 13.5H15.6875C15.2399 13.5 14.8107 13.6778 14.4943 13.9943C14.1778 14.3107 14 14.7399 14 15.1875V25.3125C14 25.7601 14.1778 26.1893 14.4943 26.5057C14.8107 26.8222 15.2399 27 15.6875 27H24.3125C24.5341 27 24.7535 26.9564 24.9583 26.8715C25.163 26.7867 25.349 26.6624 25.5057 26.5057C25.6624 26.349 25.7867 26.163 25.8715 25.9583C25.9564 25.7535 26 25.5341 26 25.3125V15.1875C26 14.9659 25.9564 14.7465 25.8715 14.5417C25.7867 14.337 25.6624 14.151 25.5057 13.9943C25.349 13.8376 25.163 13.7133 24.9583 13.6285C24.7535 13.5436 24.5341 13.5 24.3125 13.5H22.9895C22.9434 13.0875 22.7468 12.7065 22.4375 12.4297C22.1281 12.153 21.7276 12 21.3125 12V12ZM18.6875 13.125H21.3125C21.4617 13.125 21.6048 13.1843 21.7102 13.2898C21.8157 13.3952 21.875 13.5383 21.875 13.6875C21.875 13.8367 21.8157 13.9798 21.7102 14.0852C21.6048 14.1907 21.4617 14.25 21.3125 14.25H18.6875C18.5383 14.25 18.3952 14.1907 18.2898 14.0852C18.1843 13.9798 18.125 13.8367 18.125 13.6875C18.125 13.5383 18.1843 13.3952 18.2898 13.2898C18.3952 13.1843 18.5383 13.125 18.6875 13.125ZM23.7725 18.7725L19.6475 22.8975C19.542 23.0028 19.3991 23.062 19.25 23.062C19.1009 23.062 18.958 23.0028 18.8525 22.8975L16.9775 21.0225C16.9222 20.971 16.8779 20.9089 16.8472 20.8399C16.8164 20.7709 16.7999 20.6964 16.7986 20.6209C16.7972 20.5454 16.8111 20.4703 16.8394 20.4003C16.8677 20.3303 16.9098 20.2666 16.9632 20.2132C17.0166 20.1598 17.0803 20.1177 17.1503 20.0894C17.2203 20.0611 17.2954 20.0472 17.3709 20.0486C17.4464 20.0499 17.5209 20.0664 17.5899 20.0972C17.6589 20.1279 17.721 20.1722 17.7725 20.2275L19.25 21.705L22.9775 17.9775C23.029 17.9222 23.0911 17.8779 23.1601 17.8472C23.2291 17.8164 23.3036 17.7999 23.3791 17.7986C23.4546 17.7972 23.5297 17.8111 23.5997 17.8394C23.6697 17.8677 23.7334 17.9098 23.7868 17.9632C23.8402 18.0166 23.8823 18.0803 23.9106 18.1503C23.9389 18.2203 23.9528 18.2954 23.9514 18.3709C23.9501 18.4464 23.9336 18.5209 23.9028 18.5899C23.8721 18.6589 23.8278 18.721 23.7725 18.7725V18.7725Z" fill="#3D3A2C"/>
</svg>
