<svg width="24" height="24" viewBox="0 0 24 24" fill="none" xmlns="http://www.w3.org/2000/svg">
<path id="svgInternalID" d="M14.9701 9.61678C15.2642 9.61685 15.548 9.72493 15.7677 9.92048C15.9874 10.116 16.1276 10.3855 16.1617 10.6776L16.1701 10.8168V16.0584C16.1779 17.1526 15.7564 18.2063 14.9961 18.9933C14.2358 19.7802 13.1973 20.2378 12.1034 20.2676C11.0096 20.2974 9.9476 19.8972 9.1455 19.1529C8.3434 18.4086 7.8651 17.3794 7.81327 16.2864L7.80727 16.0584V10.8168C7.80735 10.5227 7.91542 10.2388 8.11098 10.0192C8.30654 9.7995 8.57595 9.65929 8.86807 9.62518L9.00727 9.61678H14.9701ZM6.93007 9.61678C6.75547 9.91806 6.64897 10.2539 6.61807 10.6008L6.60727 10.8168V16.0584L6.61327 16.3104C6.64927 17.082 6.84727 17.8104 7.17487 18.4644C6.66957 18.6766 6.12075 18.7645 5.57444 18.7208C5.02813 18.6771 4.50027 18.503 4.03515 18.2132C3.57002 17.9233 3.1812 17.5261 2.90129 17.0549C2.62138 16.5837 2.45856 16.0523 2.42647 15.5052L2.42047 15.3036V10.8168C2.42051 10.5229 2.52842 10.2392 2.72373 10.0195C2.91904 9.79989 3.18817 9.65956 3.48007 9.62518L3.62047 9.61678H6.92887H6.93007ZM17.0485 9.61678H20.3893C20.6834 9.61685 20.9672 9.72493 21.1869 9.92048C21.4066 10.116 21.5468 10.3855 21.5809 10.6776L21.5893 10.8168V15.3048C21.5893 15.8723 21.4484 16.4309 21.1793 16.9305C20.9101 17.4301 20.5211 17.855 20.0472 18.1672C19.5733 18.4793 19.0292 18.6689 18.464 18.7189C17.8987 18.7689 17.3298 18.6777 16.8085 18.4536C17.1309 17.806 17.3187 17.0998 17.3605 16.3776L17.3701 16.0584V10.8168L17.3629 10.638C17.3367 10.2782 17.2292 9.92901 17.0485 9.61678ZM11.9869 3.58678C12.6958 3.58678 13.3757 3.8684 13.877 4.36968C14.3783 4.87097 14.6599 5.55085 14.6599 6.25978C14.6599 6.9687 14.3783 7.64859 13.877 8.14987C13.3757 8.65116 12.6958 8.93278 11.9869 8.93278C11.2779 8.93278 10.5981 8.65116 10.0968 8.14987C9.59549 7.64859 9.31387 6.9687 9.31387 6.25978C9.31387 5.55085 9.59549 4.87097 10.0968 4.36968C10.5981 3.8684 11.2779 3.58678 11.9869 3.58678ZM17.9713 4.34038C18.5803 4.34038 19.1643 4.5823 19.5949 5.01292C20.0256 5.44354 20.2675 6.02759 20.2675 6.63658C20.2675 7.24557 20.0256 7.82961 19.5949 8.26024C19.1643 8.69086 18.5803 8.93278 17.9713 8.93278C17.3623 8.93278 16.7782 8.69086 16.3476 8.26024C15.917 7.82961 15.6751 7.24557 15.6751 6.63658C15.6751 6.02759 15.917 5.44354 16.3476 5.01292C16.7782 4.5823 17.3623 4.34038 17.9713 4.34038ZM6.02047 4.34038C6.62946 4.34038 7.21351 4.5823 7.64413 5.01292C8.07475 5.44354 8.31667 6.02759 8.31667 6.63658C8.31667 7.24557 8.07475 7.82961 7.64413 8.26024C7.21351 8.69086 6.62946 8.93278 6.02047 8.93278C5.41148 8.93278 4.82743 8.69086 4.39681 8.26024C3.96619 7.82961 3.72427 7.24557 3.72427 6.63658C3.72427 6.02759 3.96619 5.44354 4.39681 5.01292C4.82743 4.5823 5.41148 4.34038 6.02047 4.34038Z" fill="#A4AFB4"/>
</svg>
